<?xml version="1.0" standalone="no"?>
<!DOCTYPE svg PUBLIC "-//W3C//DTD SVG 20010904//EN"
 "http://www.w3.org/TR/2001/REC-SVG-20010904/DTD/svg10.dtd">
<svg version="1.0" xmlns="http://www.w3.org/2000/svg"
 width="476.000000pt" height="476.000000pt" viewBox="0 0 476.000000 476.000000"
 preserveAspectRatio="xMidYMid meet">
<metadata>
Created by potrace 1.11, written by Peter Selinger 2001-2013
</metadata>
<g transform="translate(0.000000,476.000000) scale(0.100000,-0.100000)"
fill="#000000" stroke="none">
<path d="M1700 4581 c0 -11 11 -23 28 -29 94 -34 133 -47 182 -58 l55 -13 -60
4 c-41 3 -54 1 -40 -5 16 -7 10 -9 -25 -9 -25 -1 -61 -4 -82 -7 -30 -5 -37 -3
-41 12 -4 18 -5 18 -7 -1 -1 -11 -8 2 -14 28 -6 26 -16 49 -21 50 -19 4 -16
-62 4 -102 12 -22 21 -43 21 -45 0 -13 -67 -38 -142 -52 -53 -10 -121 -14
-190 -12 -91 3 -111 6 -136 25 -27 20 -31 21 -43 7 -11 -14 -11 -18 3 -28 8
-6 30 -42 48 -79 19 -37 48 -85 67 -106 34 -40 40 -56 24 -65 -4 -3 -50 -13
-102 -22 -77 -13 -104 -14 -154 -4 -33 6 -68 19 -77 27 -9 8 -22 12 -27 8 -16
-9 -13 -82 5 -150 9 -33 18 -69 21 -80 3 -15 -19 -43 -84 -107 -78 -77 -163
-148 -178 -148 -12 0 -75 -46 -79 -58 -8 -19 54 -83 101 -103 51 -22 55 -43
18 -107 -29 -51 -58 -164 -80 -312 -9 -58 -24 -139 -33 -180 -21 -93 -23 -341
-4 -485 18 -131 18 -132 40 -112 23 21 34 13 70 -58 51 -102 58 -138 37 -184
-36 -80 1 -195 77 -241 17 -10 61 -22 97 -26 63 -6 68 -9 117 -58 30 -31 60
-75 74 -109 22 -54 26 -57 58 -57 23 0 60 -14 104 -40 81 -47 118 -59 118 -39
0 11 3 11 10 -1 9 -13 11 -13 21 0 8 11 12 12 16 2 2 -6 8 -10 13 -7 10 6 100
-27 100 -38 0 -4 -10 -21 -22 -38 -19 -25 -23 -48 -29 -152 -7 -125 -3 -199
12 -229 5 -9 11 -49 13 -89 2 -41 9 -75 16 -79 7 -4 9 -13 6 -19 -4 -6 -3 -11
2 -11 6 0 17 -19 27 -42 19 -50 94 -123 140 -138 33 -11 47 -33 61 -95 10 -48
45 -126 76 -172 15 -23 28 -49 28 -58 0 -25 19 -55 35 -55 9 0 15 -9 15 -23 0
-48 52 -63 97 -27 14 11 34 20 44 20 9 0 24 6 32 14 12 13 49 20 84 17 9 -1 6
-11 -7 -34 -24 -39 -24 -46 -1 -76 18 -23 18 -23 52 -5 19 10 40 17 47 16 6
-2 12 4 12 13 0 10 10 15 28 15 15 0 36 7 46 15 11 8 26 15 34 15 8 0 28 10
45 22 18 13 67 37 109 55 43 17 129 58 191 91 62 34 162 82 222 107 61 26 115
50 120 55 12 9 86 35 102 35 6 0 31 13 55 29 23 15 57 30 75 33 18 3 30 9 27
14 -3 5 0 9 5 9 13 0 51 31 51 41 0 4 -8 5 -19 2 -10 -3 -22 1 -26 8 -5 7 -4
10 3 5 5 -3 12 0 15 6 7 23 -5 48 -22 48 -10 0 -46 25 -82 56 -77 67 -102 81
-171 95 -29 6 -60 13 -68 16 -8 3 -24 7 -35 9 -11 1 -47 8 -80 14 -98 19 -142
22 -160 13 -14 -8 -14 -12 5 -33 18 -21 19 -25 5 -32 -8 -5 -15 -15 -15 -22 0
-8 -9 -16 -21 -19 -12 -3 -18 -10 -14 -16 3 -6 -3 -23 -14 -37 -13 -16 -21
-21 -21 -12 0 8 4 18 8 23 5 6 14 44 21 85 7 41 19 110 28 153 9 48 14 115 11
180 -2 87 -7 110 -30 158 -16 31 -28 60 -28 66 0 5 20 19 44 30 24 12 75 42
114 67 85 54 110 62 156 46 43 -14 73 -1 82 35 3 13 15 27 25 30 10 4 19 14
19 24 0 37 112 121 181 135 50 11 93 50 127 116 29 56 33 72 28 114 -3 26 -14
63 -24 81 l-19 32 33 84 c52 128 63 180 79 357 16 187 8 371 -23 510 -10 45
-17 80 -14 77 3 -2 13 0 24 6 16 9 18 17 13 52 -17 112 -83 297 -144 407 -17
30 -31 65 -31 77 0 13 21 41 51 71 29 28 49 57 47 64 -3 7 -31 19 -63 25 -98
21 -345 145 -345 174 0 5 15 28 33 52 41 53 63 105 51 117 -5 5 -26 1 -49 -10
-49 -22 -148 -45 -167 -38 -8 3 -19 36 -26 79 -19 112 -41 178 -63 189 -26 14
-35 7 -43 -32 -7 -37 -51 -108 -67 -108 -5 0 -40 19 -77 43 -107 69 -133 84
-202 111 -95 39 -212 56 -378 56 -169 0 -250 12 -347 51 -38 16 -71 29 -72 29
-2 0 -3 -8 -3 -19z m758 -137 c78 -31 164 -75 158 -82 -3 -2 -19 3 -36 11 -16
9 -28 11 -25 6 4 -5 -1 -9 -9 -9 -9 0 -16 6 -16 13 0 6 -14 13 -32 14 -18 2
-34 7 -36 13 -2 5 -12 10 -23 10 -41 0 -149 32 -142 43 3 5 2 8 -3 5 -5 -3
-27 -2 -49 3 -29 6 -14 7 53 4 69 -4 111 -12 160 -31z m441 -68 c11 -45 14
-93 4 -68 -2 6 -9 10 -14 6 -5 -3 -12 1 -15 10 -3 8 -12 12 -19 10 -10 -4 -12
1 -8 15 3 12 9 24 14 27 5 3 9 14 9 25 0 35 17 20 29 -25z m-1599 -73 c-8 -3
-18 -10 -21 -15 -3 -5 -12 -2 -19 7 -11 13 -8 15 21 14 19 0 27 -3 19 -6z
m1849 -135 c-7 -13 -18 -29 -26 -36 -11 -11 -13 -10 -13 5 0 14 -2 15 -9 4 -6
-9 -11 -10 -15 -2 -4 6 -19 11 -34 12 -24 0 -25 1 -7 9 17 7 85 25 108 29 4 0
2 -9 -4 -21z m-2064 -128 l50 -7 -35 -6 c-19 -4 -52 -9 -72 -11 -35 -3 -38 -1
-38 21 0 21 3 23 22 17 12 -4 45 -10 73 -14z m2338 -185 c47 -7 58 -17 35 -32
-21 -13 -58 -10 -58 4 0 7 -11 19 -25 25 -14 6 -25 16 -25 21 0 6 5 5 13 -1 6
-5 33 -13 60 -17z m-2684 -310 c16 9 14 -4 -3 -20 -11 -12 -17 -11 -35 6 -22
21 -28 35 -11 24 6 -3 10 0 10 7 1 8 6 6 15 -6 7 -10 18 -15 24 -11z m1718
-65 c1 -20 -3 -33 -13 -37 -10 -4 -12 -9 -4 -18 8 -10 3 -21 -20 -43 -16 -17
-30 -36 -31 -44 0 -7 -9 -26 -20 -43 -11 -16 -22 -38 -25 -47 -4 -10 -11 -18
-16 -18 -6 0 -8 -7 -5 -14 4 -11 1 -13 -10 -9 -13 5 -15 2 -10 -11 4 -10 3
-15 -3 -11 -6 3 -10 2 -10 -3 0 -12 -81 -97 -130 -136 -32 -25 -33 -27 -10
-22 20 5 19 3 -7 -11 -18 -9 -33 -20 -33 -25 0 -14 29 -9 70 12 26 13 40 16
40 9 0 -8 6 -6 18 4 12 11 22 13 34 6 12 -7 22 -4 35 9 10 10 50 36 88 57 39
21 83 49 98 62 16 13 34 20 39 17 7 -5 8 -2 3 6 -6 10 -4 12 9 7 10 -4 15 -3
11 3 -3 5 7 17 22 27 33 21 38 25 81 59 17 14 32 24 32 21 0 -3 14 8 31 24 17
16 36 29 41 29 6 0 19 12 30 26 11 14 27 23 34 20 8 -3 14 -2 14 3 0 5 17 12
38 16 29 6 33 9 18 14 -18 7 -18 8 -3 14 10 4 21 17 26 30 7 19 15 23 33 20
21 -4 45 -41 69 -108 l7 -20 2 20 c1 18 2 18 11 -3 5 -13 11 -33 13 -45 2 -12
9 -35 15 -50 6 -15 10 -31 9 -35 -1 -4 2 -16 6 -27 19 -50 26 -72 29 -95 3
-27 28 -99 57 -165 26 -60 62 -177 56 -182 -3 -3 2 -19 10 -36 10 -19 12 -32
6 -36 -6 -3 -10 -13 -9 -21 1 -8 -3 -58 -8 -110 -5 -52 -9 -100 -10 -107 0 -6
-4 -15 -7 -19 -4 -4 -5 -24 -2 -46 8 -45 -14 -137 -27 -116 -6 9 -9 7 -9 -9 0
-12 -10 -29 -22 -38 l-23 -17 22 7 c18 5 22 3 17 -9 -3 -9 -12 -12 -21 -9 -11
4 -14 2 -9 -5 4 -7 3 -12 -3 -12 -5 0 -12 8 -14 18 -4 14 -6 14 -12 -5 -9 -27
-24 -31 -21 -5 1 9 19 26 40 37 26 14 36 26 34 40 -2 15 -9 19 -30 17 -33 -4
-93 23 -116 53 -9 12 -44 39 -77 61 -33 21 -62 42 -65 45 -18 23 -194 36 -265
20 -28 -6 -30 -9 -27 -49 2 -25 -1 -42 -7 -42 -6 0 -11 -19 -11 -42 0 -23 3
-38 7 -35 9 9 33 -12 33 -30 0 -14 8 -25 42 -63 38 -42 45 -80 15 -80 -14 0
-121 -136 -130 -165 -4 -11 -8 -33 -11 -49 -3 -15 -13 -34 -22 -41 -11 -7 -14
-17 -9 -25 6 -10 3 -12 -13 -8 -12 4 -20 2 -17 -2 8 -13 -91 -40 -165 -46 -36
-2 -79 -7 -95 -9 -77 -13 -231 -23 -258 -18 -16 3 -44 21 -62 40 -25 25 -35
30 -42 21 -11 -14 -25 -64 -16 -54 4 3 26 -6 51 -20 51 -30 125 -34 257 -14
39 6 76 10 81 9 25 -7 241 28 287 46 10 4 17 3 17 -4 0 -6 -4 -11 -10 -11 -5
0 -10 -4 -10 -10 0 -17 28 -11 33 8 3 9 5 0 6 -20 0 -21 5 -38 9 -38 5 0 16
-25 26 -55 9 -30 25 -60 36 -68 10 -7 24 -26 29 -41 6 -15 24 -33 41 -40 l30
-12 -20 -22 c-12 -12 -30 -22 -40 -22 -11 0 -20 -4 -20 -8 0 -5 -24 -14 -52
-21 -266 -63 -283 -70 -313 -136 -18 -43 -20 -43 -35 -24 -52 67 -69 77 -142
84 -61 6 -67 7 -171 33 -43 11 -85 26 -94 34 -12 9 -15 9 -9 1 8 -14 2 -16
-32 -6 -18 4 -21 8 -10 15 9 7 7 8 -10 5 -14 -3 -25 1 -31 10 -5 11 -17 14
-35 11 -17 -4 -26 -1 -26 8 0 8 6 11 17 7 10 -3 15 -3 11 1 -6 8 29 86 39 86
2 0 1 -6 -3 -12 -4 -7 -3 -9 1 -5 5 4 8 26 6 49 -2 26 2 44 11 49 29 18 18
269 -12 269 -4 0 -11 11 -14 25 -4 14 -11 25 -16 25 -6 0 -10 6 -10 13 0 6
-16 31 -35 54 l-36 41 -59 -5 c-46 -4 -67 -1 -102 15 -23 11 -58 23 -75 27
-18 4 -33 11 -33 16 0 5 -3 8 -7 8 -41 -7 -55 18 -34 59 5 9 15 30 22 45 l13
28 12 -48 c16 -63 53 -93 115 -93 67 0 128 25 175 71 22 22 42 37 45 35 9 -10
15 109 7 173 -3 30 -9 36 -36 43 -48 13 -136 -6 -218 -47 -90 -44 -120 -68
-144 -115 -29 -57 -64 -87 -108 -95 -34 -5 -41 -10 -44 -35 -4 -28 -3 -29 31
-25 20 2 28 1 19 -1 -10 -3 -18 -9 -18 -13 0 -4 -14 -7 -31 -6 -26 2 -35 -4
-56 -38 -13 -21 -27 -37 -30 -34 -6 7 -35 179 -38 232 -5 66 -7 179 -5 190 1
6 1 20 1 32 -1 11 3 24 8 28 6 3 11 16 10 28 -1 21 -2 20 -10 -3 -8 -23 -8
-22 -3 5 2 17 7 45 10 64 3 19 9 42 14 52 6 10 10 27 10 39 0 12 4 19 9 16 5
-4 7 3 4 14 -6 22 10 92 34 150 35 84 44 102 50 96 3 -3 0 -12 -7 -21 -8 -10
-9 -15 -1 -15 6 0 11 -9 11 -20 0 -28 24 -25 57 8 15 15 25 23 21 18 -5 -6 -8
-12 -8 -15 0 -5 38 -6 70 -2 14 2 12 19 -2 24 -7 2 -5 3 5 1 11 -1 22 6 27 19
5 12 9 17 9 10 1 -14 31 -6 31 9 0 5 -5 6 -12 2 -7 -4 -8 -3 -4 4 4 7 15 12
25 12 23 0 43 23 36 42 -8 20 30 52 55 45 15 -4 20 0 20 13 0 10 6 20 14 23
10 4 13 -2 12 -24 -2 -26 5 -34 27 -30 23 4 -2 -23 -65 -69 -40 -29 -88 -64
-106 -78 -33 -24 -38 -48 -10 -46 8 1 49 27 90 58 41 31 80 56 86 56 5 0 12 4
14 8 3 9 92 63 178 109 30 16 79 44 108 61 28 17 52 29 52 26 0 -7 63 36 71
49 4 5 18 10 32 10 14 1 24 4 22 7 -2 3 29 21 68 39 40 19 104 49 144 67 39
19 86 34 105 35 31 1 31 2 8 9 -14 5 -18 8 -9 9 9 1 22 7 28 15 7 8 30 17 52
21 21 4 37 11 33 16 -4 7 2 29 9 29 1 0 3 -14 4 -30z m1062 -75 c0 -11 -6 -2
-14 20 -18 50 -18 57 0 25 8 -14 14 -34 14 -45z m18 -57 c-3 -8 -6 -5 -6 6 -1
11 2 17 5 13 3 -3 4 -12 1 -19z m-2127 -307 c0 -5 -9 -11 -20 -14 -22 -6 -28
8 -7 16 19 8 27 8 27 -2z m-690 -90 c0 -43 -5 -75 -13 -83 -7 -7 -13 -35 -13
-63 -2 -94 -11 -195 -19 -203 -14 -13 3 271 19 317 9 24 16 56 16 72 0 16 2
29 5 29 3 0 5 -31 5 -69z m2860 -87 c0 -8 -4 -14 -10 -14 -5 0 -10 9 -10 21 0
11 5 17 10 14 6 -3 10 -13 10 -21z m-3 -141 c1 -57 -2 -85 -6 -68 -8 34 -6
165 2 165 2 0 3 -44 4 -97z m-2895 -198 c0 -26 -3 -49 -5 -52 -3 -3 -6 21 -6
52 0 31 3 55 6 52 2 -3 5 -26 5 -52z m2196 -167 c-5 -15 -23 -11 -26 6 -2 11
2 14 13 10 9 -4 14 -11 13 -16z m-1248 -8 c0 -11 -4 -20 -9 -20 -11 0 -22 26
-14 34 12 12 23 5 23 -14z m1376 -56 c30 -30 35 -42 30 -66 -4 -20 -2 -27 6
-22 7 5 8 3 3 -5 -4 -7 -16 -11 -26 -8 -11 3 -17 2 -14 -3 3 -4 -10 -10 -28
-13 -17 -3 -47 -8 -65 -11 l-34 -5 41 42 c38 39 46 59 44 115 -1 18 3 16 43
-24z m-296 -144 c0 -5 -4 -10 -10 -10 -5 0 -10 5 -10 10 0 6 5 10 10 10 6 0
10 -4 10 -10z m720 -7 c36 -25 48 -43 55 -85 8 -42 -15 -120 -44 -155 -34 -41
-164 -68 -211 -43 -15 8 -16 14 -7 34 7 13 15 22 19 20 3 -2 16 8 27 22 16 21
19 35 14 69 -6 46 19 140 40 149 27 11 84 5 107 -11z m-2412 -90 c6 -15 12
-35 12 -45 0 -10 7 -35 15 -55 15 -35 14 -39 -7 -80 -20 -37 -21 -45 -9 -53 9
-5 22 -5 32 1 29 15 33 10 8 -10 -13 -10 -29 -16 -36 -14 -7 3 -13 1 -13 -4 0
-5 -24 -10 -52 -12 -46 -1 -58 2 -92 30 -118 99 -69 269 79 269 44 0 51 -3 63
-27z m2102 8 c0 -19 -23 -35 -34 -24 -14 15 -5 43 14 43 13 0 20 -7 20 -19z
m-1850 -42 c0 -12 -7 -19 -20 -19 -11 0 -20 2 -20 4 0 2 -3 11 -6 19 -3 10 1
17 13 19 25 6 33 0 33 -23z m-215 -179 c3 -5 1 -10 -4 -10 -6 0 -11 5 -11 10
0 6 2 10 4 10 3 0 8 -4 11 -10z m65 -70 c0 -5 -7 -10 -16 -10 -8 0 -12 -4 -9
-10 3 -6 -1 -7 -10 -4 -14 6 -14 8 2 20 22 16 33 18 33 4z m587 -326 c-3 -3
-12 -4 -19 -1 -8 3 -5 6 6 6 11 1 17 -2 13 -5z m1014 -31 c46 -56 59 -100 59
-194 0 -114 -37 -323 -64 -368 -9 -15 -61 -14 -85 1 -18 11 -18 15 -5 47 7 20
23 72 35 116 12 44 30 100 41 124 14 31 17 46 9 54 -18 18 -36 -11 -66 -108
-49 -162 -85 -270 -93 -283 -6 -8 -22 -11 -48 -8 -21 2 -49 5 -62 5 l-24 1 2
138 2 137 36 53 c27 41 36 67 41 115 5 55 9 62 31 68 14 4 35 4 48 2 17 -4 22
-1 22 16 0 23 -6 25 -61 22 -20 -2 -40 2 -44 8 -7 13 23 25 81 34 48 8 63 -4
73 -55 4 -17 11 -33 18 -35 19 -7 22 23 7 67 -12 35 -13 45 -2 51 20 13 34 11
49 -8z m-903 -49 c44 -11 72 -23 72 -31 0 -9 -8 -12 -22 -9 -60 13 -73 11 -76
-11 -3 -21 1 -23 42 -23 l46 0 0 -52 c0 -34 8 -69 25 -103 21 -45 25 -68 26
-166 3 -161 3 -159 -25 -159 -12 0 -38 -5 -55 -11 -26 -9 -35 -9 -45 2 -17 18
-63 168 -80 259 -15 79 -21 89 -38 72 -12 -12 5 -106 37 -207 29 -90 29 -91
-15 -93 -62 -4 -75 8 -92 90 -47 216 -49 319 -10 398 17 35 34 56 47 58 l20 4
-20 -17 c-11 -9 -15 -14 -10 -11 7 3 9 -8 7 -30 -6 -49 4 -70 24 -53 8 7 13
21 10 32 -7 28 23 85 43 81 9 -1 49 -11 89 -20z m643 -31 c19 -48 6 -123 -30
-175 l-31 -47 -25 25 c-13 13 -29 24 -36 24 -7 0 11 24 40 54 46 50 51 59 51
100 0 51 15 60 31 19z m-468 -17 c4 -6 5 -21 2 -33 -7 -29 9 -68 39 -94 l25
-22 -29 -34 c-17 -18 -30 -40 -30 -48 0 -29 -17 -14 -47 43 -34 63 -51 136
-34 147 6 3 11 20 11 36 0 27 2 29 28 23 15 -4 30 -12 35 -18z m397 -8 c0 -28
-9 -41 -57 -80 -32 -27 -65 -48 -74 -48 -22 0 -35 -18 -43 -60 -4 -19 -15 -53
-25 -75 l-18 -40 -17 39 c-9 21 -16 60 -16 87 0 37 -4 49 -15 49 -28 0 -95 77
-95 109 l0 29 55 -13 c39 -9 63 -21 80 -41 14 -16 25 -32 25 -36 0 -5 9 -8 20
-8 11 0 20 6 20 13 0 8 3 9 8 1 4 -6 16 -13 28 -16 18 -4 21 -1 18 20 -4 40
13 72 48 87 49 21 58 19 58 -17z m-77 -193 c6 -15 2 -260 -9 -468 -5 -108 -9
-129 -24 -137 -22 -12 -32 0 -51 55 -7 22 -17 45 -22 52 -10 14 -11 318 -1
359 4 15 13 39 20 53 8 14 14 35 14 46 0 34 14 45 61 54 4 0 9 -6 12 -14z
m-213 -11 c0 -8 14 -49 31 -89 l31 -75 -4 -174 c-2 -123 -7 -179 -15 -188 -7
-6 -13 -22 -13 -35 0 -13 -3 -23 -7 -24 -5 0 -20 -2 -34 -4 -48 -6 -51 3 -45
121 3 60 6 123 5 139 -3 200 1 317 11 330 16 20 40 19 40 -1z m757 -216 c-3
-7 -5 -2 -5 12 0 14 2 19 5 13 2 -7 2 -19 0 -25z m-157 -95 c0 -18 -94 -142
-111 -146 -35 -9 -114 21 -170 65 l-53 43 51 3 c76 4 119 -9 115 -36 -5 -32
24 -28 41 6 8 15 17 38 20 52 6 23 10 25 57 22 27 -2 50 -6 50 -9z m-945 -33
c0 -33 23 -36 79 -11 48 22 92 27 116 11 9 -5 19 -5 27 2 8 6 16 9 18 6 3 -3
-34 -33 -82 -66 -119 -85 -168 -81 -217 17 -29 58 -25 73 23 69 31 -3 36 -6
36 -28z m955 -64 c-5 -15 -15 -24 -20 -21 -10 6 -6 19 15 41 15 17 17 10 5
-20z m690 17 c0 -5 -5 -15 -10 -23 -7 -12 -9 -10 -7 8 1 19 17 33 17 15z
m-1464 -151 c-7 -7 -85 28 -93 42 -3 6 -3 8 1 4 7 -6 45 22 80 58 8 9 12 -3
14 -43 2 -31 1 -58 -2 -61z m584 35 c0 -4 -8 -11 -17 -14 -10 -4 -29 -15 -42
-25 -13 -10 -29 -18 -36 -18 -16 0 -31 42 -34 97 l-2 42 65 -37 c36 -20 66
-41 66 -45z m164 57 c3 -8 2 -12 -4 -9 -6 3 -10 10 -10 16 0 14 7 11 14 -7z
m-40 -39 c-6 -16 -24 -21 -24 -7 0 11 11 22 21 22 5 0 6 -7 3 -15z m-44 -30
c0 -8 -6 -15 -12 -15 -7 0 -5 -5 5 -11 9 -5 17 -15 17 -21 0 -6 -3 -9 -6 -5
-10 10 -32 -17 -27 -33 2 -8 -2 -5 -9 8 -8 12 -17 19 -21 16 -17 -17 -5 19 15
46 24 33 38 38 38 15z"/>
<path d="M2365 3440 c-3 -5 -2 -10 4 -10 5 0 13 5 16 10 3 6 2 10 -4 10 -5 0
-13 -4 -16 -10z"/>
<path d="M2805 3370 c-3 -5 -1 -10 4 -10 6 0 11 5 11 10 0 6 -2 10 -4 10 -3 0
-8 -4 -11 -10z"/>
<path d="M2149 3063 c-13 -16 -12 -17 4 -4 9 7 17 15 17 17 0 8 -8 3 -21 -13z"/>
<path d="M1625 3040 c-3 -6 1 -7 9 -4 18 7 21 14 7 14 -6 0 -13 -4 -16 -10z"/>
<path d="M2777 2870 c-20 -4 -40 -10 -44 -14 -12 -12 14 -41 33 -38 49 9 104
-1 140 -24 27 -18 54 -13 54 11 0 15 -77 58 -120 67 -14 3 -42 2 -63 -2z"/>
<path d="M1315 2739 c-63 -44 -86 -68 -82 -83 6 -21 25 -15 66 21 40 34 49 37
107 37 38 1 66 6 68 13 8 20 -18 41 -59 48 -36 5 -47 2 -100 -36z"/>
<path d="M1434 2607 c-24 -8 -33 -19 -41 -49 -6 -21 -6 -38 -2 -38 5 0 9 6 9
14 0 9 8 12 25 8 14 -2 36 3 50 12 13 9 38 16 54 16 16 0 33 5 36 10 4 7 -8
10 -34 8 -23 -2 -41 -6 -41 -10 0 -5 -9 -8 -19 -8 -11 0 -23 -5 -26 -10 -4 -6
-11 -8 -16 -4 -13 8 25 44 46 44 8 0 15 5 15 10 0 12 -13 11 -56 -3z"/>
<path d="M2120 2208 c-11 -12 -20 -27 -20 -34 0 -21 19 -26 36 -10 18 18 30
20 39 6 9 -15 35 -12 41 5 7 17 -32 54 -58 55 -10 0 -26 -10 -38 -22z"/>
<path d="M1081 2093 c-1 -6 -4 -20 -7 -30 -5 -17 -5 -17 6 0 6 10 9 23 6 30
-3 9 -5 9 -5 0z"/>
<path d="M1837 1749 c7 -7 15 -10 18 -7 3 3 -2 9 -12 12 -14 6 -15 5 -6 -5z"/>
<path d="M1025 1945 c3 -16 11 -34 16 -39 15 -16 11 9 -7 40 l-16 29 7 -30z"/>
<path d="M1014 1890 c0 -13 4 -16 10 -10 7 7 7 13 0 20 -6 6 -10 3 -10 -10z"/>
<path d="M2700 930 c0 -5 4 -10 9 -10 6 0 13 5 16 10 3 6 -1 10 -9 10 -9 0
-16 -4 -16 -10z"/>
<path d="M1800 710 c0 -6 7 -13 15 -17 24 -9 27 1 5 15 -13 8 -20 8 -20 2z"/>
<path d="M1807 669 c7 -7 15 -10 18 -7 3 3 -2 9 -12 12 -14 6 -15 5 -6 -5z"/>
<path d="M2560 540 c0 -5 5 -10 10 -10 6 0 10 5 10 10 0 6 -4 10 -10 10 -5 0
-10 -4 -10 -10z"/>
</g>
</svg>
